<mxfile host="65bd71144e" pages="2">
    <diagram name="Organogram" id="uWeigdrOckjfOTDfEyCn">
        <mxGraphModel dx="1733" dy="974" grid="1" gridSize="10" guides="1" tooltips="1" connect="1" arrows="1" fold="1" page="1" pageScale="1" pageWidth="1440" pageHeight="900" math="0" shadow="0">
            <root>
                <mxCell id="0"/>
                <mxCell id="1" parent="0"/>
                <mxCell id="49" value="&lt;h1 style=&quot;margin-top: 0px;&quot;&gt;&lt;u&gt;HRI System&lt;/u&gt;&lt;/h1&gt;&lt;p&gt;Lorem ipsum dolor sit amet, consectetur adipisicing elit, sed do eiusmod tempor incididunt ut labore et dolore magna aliqua.&lt;/p&gt;" style="text;html=1;whiteSpace=wrap;overflow=hidden;rounded=0;" parent="1" vertex="1">
                    <mxGeometry x="40" y="40" width="240" height="120" as="geometry"/>
                </mxCell>
                <mxCell id="50" value="&lt;h1 style=&quot;margin-top: 0px;&quot;&gt;&lt;u&gt;Strategy&lt;/u&gt;&lt;/h1&gt;&lt;p&gt;&lt;/p&gt;&lt;ul&gt;&lt;li&gt;&lt;b&gt;Role(RBAC)&amp;nbsp;&lt;/b&gt;based access&lt;/li&gt;&lt;li&gt;&lt;b&gt;Feature/Module&amp;nbsp;&lt;/b&gt;based&amp;nbsp;&lt;span style=&quot;color: rgb(63, 63, 63);&quot;&gt;architecture&lt;/span&gt;&lt;/li&gt;&lt;li&gt;&lt;span style=&quot;color: rgb(63, 63, 63);&quot;&gt;&lt;b&gt;Monolitic&lt;/b&gt; architecture&lt;/span&gt;&lt;/li&gt;&lt;/ul&gt;&lt;p&gt;&lt;/p&gt;" style="text;html=1;whiteSpace=wrap;overflow=hidden;rounded=0;" parent="1" vertex="1">
                    <mxGeometry x="300" y="40" width="240" height="120" as="geometry"/>
                </mxCell>
                <mxCell id="218" value="&lt;table class=&quot;min-w-full&quot; data-start=&quot;2981&quot; data-end=&quot;4353&quot;&gt;&lt;thead data-start=&quot;2981&quot; data-end=&quot;3105&quot;&gt;&lt;tr data-start=&quot;2981&quot; data-end=&quot;3105&quot;&gt;&lt;th data-start=&quot;2981&quot; data-end=&quot;3023&quot;&gt;&lt;strong data-start=&quot;2983&quot; data-end=&quot;2997&quot;&gt;Permission&lt;/strong&gt;&lt;/th&gt;&lt;th data-start=&quot;3023&quot; data-end=&quot;3035&quot; style=&quot;text-align: center;&quot;&gt;Org Admin&lt;/th&gt;&lt;th data-start=&quot;3035&quot; data-end=&quot;3048&quot; style=&quot;text-align: center;&quot;&gt;HR Manager&lt;/th&gt;&lt;th data-start=&quot;3048&quot; data-end=&quot;3058&quot; style=&quot;text-align: center;&quot;&gt;Manager&lt;/th&gt;&lt;th data-start=&quot;3058&quot; data-end=&quot;3070&quot; style=&quot;text-align: center;&quot;&gt;Recruiter&lt;/th&gt;&lt;th data-start=&quot;3070&quot; data-end=&quot;3081&quot; style=&quot;text-align: center;&quot;&gt;Employee&lt;/th&gt;&lt;th data-start=&quot;3081&quot; data-end=&quot;3091&quot; style=&quot;text-align: center;&quot;&gt;Finance&lt;/th&gt;&lt;th data-start=&quot;3091&quot; data-end=&quot;3105&quot; style=&quot;text-align: center;&quot;&gt;IT/Support&lt;/th&gt;&lt;/tr&gt;&lt;/thead&gt;&lt;tbody data-start=&quot;3231&quot; data-end=&quot;4353&quot;&gt;&lt;tr data-start=&quot;3231&quot; data-end=&quot;3355&quot;&gt;&lt;td class=&quot;max-w-[calc(var(--thread-content-max-width)*2/3)]&quot; data-start=&quot;3231&quot; data-end=&quot;3273&quot;&gt;Manage users &amp;amp; roles&lt;/td&gt;&lt;td class=&quot;max-w-[calc(var(--thread-content-max-width)*2/3)]&quot; data-start=&quot;3273&quot; data-end=&quot;3285&quot; style=&quot;text-align: center;&quot;&gt;✔️&lt;/td&gt;&lt;td class=&quot;max-w-[calc(var(--thread-content-max-width)*2/3)]&quot; data-start=&quot;3285&quot; data-end=&quot;3298&quot; style=&quot;text-align: center;&quot;&gt;&lt;/td&gt;&lt;td class=&quot;max-w-[calc(var(--thread-content-max-width)*2/3)]&quot; data-start=&quot;3298&quot; data-end=&quot;3308&quot; style=&quot;text-align: center;&quot;&gt;&lt;/td&gt;&lt;td class=&quot;max-w-[calc(var(--thread-content-max-width)*2/3)]&quot; data-start=&quot;3308&quot; data-end=&quot;3320&quot; style=&quot;text-align: center;&quot;&gt;&lt;/td&gt;&lt;td class=&quot;max-w-[calc(var(--thread-content-max-width)*2/3)]&quot; data-start=&quot;3320&quot; data-end=&quot;3331&quot; style=&quot;text-align: center;&quot;&gt;&lt;/td&gt;&lt;td class=&quot;max-w-[calc(var(--thread-content-max-width)*2/3)]&quot; data-start=&quot;3331&quot; data-end=&quot;3341&quot; style=&quot;text-align: center;&quot;&gt;&lt;/td&gt;&lt;td class=&quot;max-w-[calc(var(--thread-content-max-width)*2/3)]&quot; data-start=&quot;3341&quot; data-end=&quot;3355&quot; style=&quot;text-align: center;&quot;&gt;✔️&lt;/td&gt;&lt;/tr&gt;&lt;tr data-start=&quot;3356&quot; data-end=&quot;3480&quot;&gt;&lt;td class=&quot;max-w-[calc(var(--thread-content-max-width)*2/3)]&quot; data-start=&quot;3356&quot; data-end=&quot;3398&quot;&gt;Configure modules/settings&lt;/td&gt;&lt;td class=&quot;max-w-[calc(var(--thread-content-max-width)*2/3)]&quot; data-start=&quot;3398&quot; data-end=&quot;3410&quot; style=&quot;text-align: center;&quot;&gt;✔️&lt;/td&gt;&lt;td class=&quot;max-w-[calc(var(--thread-content-max-width)*2/3)]&quot; data-start=&quot;3410&quot; data-end=&quot;3423&quot; style=&quot;text-align: center;&quot;&gt;&lt;/td&gt;&lt;td class=&quot;max-w-[calc(var(--thread-content-max-width)*2/3)]&quot; data-start=&quot;3423&quot; data-end=&quot;3433&quot; style=&quot;text-align: center;&quot;&gt;&lt;/td&gt;&lt;td class=&quot;max-w-[calc(var(--thread-content-max-width)*2/3)]&quot; data-start=&quot;3433&quot; data-end=&quot;3445&quot; style=&quot;text-align: center;&quot;&gt;&lt;/td&gt;&lt;td class=&quot;max-w-[calc(var(--thread-content-max-width)*2/3)]&quot; data-start=&quot;3445&quot; data-end=&quot;3456&quot; style=&quot;text-align: center;&quot;&gt;&lt;/td&gt;&lt;td class=&quot;max-w-[calc(var(--thread-content-max-width)*2/3)]&quot; data-start=&quot;3456&quot; data-end=&quot;3466&quot; style=&quot;text-align: center;&quot;&gt;&lt;/td&gt;&lt;td class=&quot;max-w-[calc(var(--thread-content-max-width)*2/3)]&quot; data-start=&quot;3466&quot; data-end=&quot;3480&quot; style=&quot;text-align: center;&quot;&gt;✔️&lt;/td&gt;&lt;/tr&gt;&lt;tr data-start=&quot;3481&quot; data-end=&quot;3605&quot;&gt;&lt;td class=&quot;max-w-[calc(var(--thread-content-max-width)*2/3)]&quot; data-start=&quot;3481&quot; data-end=&quot;3523&quot;&gt;View/edit employee data&lt;/td&gt;&lt;td class=&quot;max-w-[calc(var(--thread-content-max-width)*2/3)]&quot; data-start=&quot;3523&quot; data-end=&quot;3535&quot; style=&quot;text-align: center;&quot;&gt;✔️&lt;/td&gt;&lt;td class=&quot;max-w-[calc(var(--thread-content-max-width)*2/3)]&quot; data-start=&quot;3535&quot; data-end=&quot;3548&quot; style=&quot;text-align: center;&quot;&gt;✔️&lt;/td&gt;&lt;td class=&quot;max-w-[calc(var(--thread-content-max-width)*2/3)]&quot; data-start=&quot;3548&quot; data-end=&quot;3558&quot; style=&quot;text-align: center;&quot;&gt;✔️&lt;/td&gt;&lt;td class=&quot;max-w-[calc(var(--thread-content-max-width)*2/3)]&quot; data-start=&quot;3558&quot; data-end=&quot;3570&quot; style=&quot;text-align: center;&quot;&gt;&lt;/td&gt;&lt;td class=&quot;max-w-[calc(var(--thread-content-max-width)*2/3)]&quot; data-start=&quot;3570&quot; data-end=&quot;3581&quot; style=&quot;text-align: center;&quot;&gt;✔️&lt;/td&gt;&lt;td class=&quot;max-w-[calc(var(--thread-content-max-width)*2/3)]&quot; data-start=&quot;3581&quot; data-end=&quot;3591&quot; style=&quot;text-align: center;&quot;&gt;&lt;/td&gt;&lt;td class=&quot;max-w-[calc(var(--thread-content-max-width)*2/3)]&quot; data-start=&quot;3591&quot; data-end=&quot;3605&quot; style=&quot;text-align: center;&quot;&gt;&lt;/td&gt;&lt;/tr&gt;&lt;tr data-start=&quot;3606&quot; data-end=&quot;3730&quot;&gt;&lt;td class=&quot;max-w-[calc(var(--thread-content-max-width)*2/3)]&quot; data-start=&quot;3606&quot; data-end=&quot;3648&quot;&gt;Job postings &amp;amp; recruitment&lt;/td&gt;&lt;td class=&quot;max-w-[calc(var(--thread-content-max-width)*2/3)]&quot; data-start=&quot;3648&quot; data-end=&quot;3660&quot; style=&quot;text-align: center;&quot;&gt;&lt;/td&gt;&lt;td class=&quot;max-w-[calc(var(--thread-content-max-width)*2/3)]&quot; data-start=&quot;3660&quot; data-end=&quot;3673&quot; style=&quot;text-align: center;&quot;&gt;✔️&lt;/td&gt;&lt;td class=&quot;max-w-[calc(var(--thread-content-max-width)*2/3)]&quot; data-start=&quot;3673&quot; data-end=&quot;3683&quot; style=&quot;text-align: center;&quot;&gt;&lt;/td&gt;&lt;td class=&quot;max-w-[calc(var(--thread-content-max-width)*2/3)]&quot; data-start=&quot;3683&quot; data-end=&quot;3695&quot; style=&quot;text-align: center;&quot;&gt;✔️&lt;/td&gt;&lt;td class=&quot;max-w-[calc(var(--thread-content-max-width)*2/3)]&quot; data-start=&quot;3695&quot; data-end=&quot;3706&quot; style=&quot;text-align: center;&quot;&gt;&lt;/td&gt;&lt;td class=&quot;max-w-[calc(var(--thread-content-max-width)*2/3)]&quot; data-start=&quot;3706&quot; data-end=&quot;3716&quot; style=&quot;text-align: center;&quot;&gt;&lt;/td&gt;&lt;td class=&quot;max-w-[calc(var(--thread-content-max-width)*2/3)]&quot; data-start=&quot;3716&quot; data-end=&quot;3730&quot; style=&quot;text-align: center;&quot;&gt;&lt;/td&gt;&lt;/tr&gt;&lt;tr data-start=&quot;3731&quot; data-end=&quot;3855&quot;&gt;&lt;td class=&quot;max-w-[calc(var(--thread-content-max-width)*2/3)]&quot; data-start=&quot;3731&quot; data-end=&quot;3773&quot;&gt;Leave &amp;amp; attendance management&lt;/td&gt;&lt;td class=&quot;max-w-[calc(var(--thread-content-max-width)*2/3)]&quot; data-start=&quot;3773&quot; data-end=&quot;3785&quot; style=&quot;text-align: center;&quot;&gt;&lt;/td&gt;&lt;td class=&quot;max-w-[calc(var(--thread-content-max-width)*2/3)]&quot; data-start=&quot;3785&quot; data-end=&quot;3798&quot; style=&quot;text-align: center;&quot;&gt;✔️&lt;/td&gt;&lt;td class=&quot;max-w-[calc(var(--thread-content-max-width)*2/3)]&quot; data-start=&quot;3798&quot; data-end=&quot;3808&quot; style=&quot;text-align: center;&quot;&gt;✔️&lt;/td&gt;&lt;td class=&quot;max-w-[calc(var(--thread-content-max-width)*2/3)]&quot; data-start=&quot;3808&quot; data-end=&quot;3820&quot; style=&quot;text-align: center;&quot;&gt;&lt;/td&gt;&lt;td class=&quot;max-w-[calc(var(--thread-content-max-width)*2/3)]&quot; data-start=&quot;3820&quot; data-end=&quot;3831&quot; style=&quot;text-align: center;&quot;&gt;✔️&lt;/td&gt;&lt;td class=&quot;max-w-[calc(var(--thread-content-max-width)*2/3)]&quot; data-start=&quot;3831&quot; data-end=&quot;3841&quot; style=&quot;text-align: center;&quot;&gt;&lt;/td&gt;&lt;td class=&quot;max-w-[calc(var(--thread-content-max-width)*2/3)]&quot; data-start=&quot;3841&quot; data-end=&quot;3855&quot; style=&quot;text-align: center;&quot;&gt;&lt;/td&gt;&lt;/tr&gt;&lt;tr data-start=&quot;3856&quot; data-end=&quot;3979&quot;&gt;&lt;td class=&quot;max-w-[calc(var(--thread-content-max-width)*2/3)]&quot; data-start=&quot;3856&quot; data-end=&quot;3898&quot;&gt;Payroll &amp;amp; finance&lt;/td&gt;&lt;td class=&quot;max-w-[calc(var(--thread-content-max-width)*2/3)]&quot; data-start=&quot;3898&quot; data-end=&quot;3910&quot; style=&quot;text-align: center;&quot;&gt;&lt;/td&gt;&lt;td class=&quot;max-w-[calc(var(--thread-content-max-width)*2/3)]&quot; data-start=&quot;3910&quot; data-end=&quot;3923&quot; style=&quot;text-align: center;&quot;&gt;✔️&lt;/td&gt;&lt;td class=&quot;max-w-[calc(var(--thread-content-max-width)*2/3)]&quot; data-start=&quot;3923&quot; data-end=&quot;3933&quot; style=&quot;text-align: center;&quot;&gt;&lt;/td&gt;&lt;td class=&quot;max-w-[calc(var(--thread-content-max-width)*2/3)]&quot; data-start=&quot;3933&quot; data-end=&quot;3945&quot; style=&quot;text-align: center;&quot;&gt;&lt;/td&gt;&lt;td class=&quot;max-w-[calc(var(--thread-content-max-width)*2/3)]&quot; data-start=&quot;3945&quot; data-end=&quot;3956&quot; style=&quot;text-align: center;&quot;&gt;&lt;/td&gt;&lt;td class=&quot;max-w-[calc(var(--thread-content-max-width)*2/3)]&quot; data-start=&quot;3956&quot; data-end=&quot;3965&quot; style=&quot;text-align: center;&quot;&gt;✔️&lt;/td&gt;&lt;td class=&quot;max-w-[calc(var(--thread-content-max-width)*2/3)]&quot; data-start=&quot;3965&quot; data-end=&quot;3979&quot; style=&quot;text-align: center;&quot;&gt;&lt;/td&gt;&lt;/tr&gt;&lt;tr data-start=&quot;3980&quot; data-end=&quot;4104&quot;&gt;&lt;td class=&quot;max-w-[calc(var(--thread-content-max-width)*2/3)]&quot; data-start=&quot;3980&quot; data-end=&quot;4022&quot;&gt;View performance data&lt;/td&gt;&lt;td class=&quot;max-w-[calc(var(--thread-content-max-width)*2/3)]&quot; data-start=&quot;4022&quot; data-end=&quot;4034&quot; style=&quot;text-align: center;&quot;&gt;&lt;/td&gt;&lt;td class=&quot;max-w-[calc(var(--thread-content-max-width)*2/3)]&quot; data-start=&quot;4034&quot; data-end=&quot;4047&quot; style=&quot;text-align: center;&quot;&gt;✔️&lt;/td&gt;&lt;td class=&quot;max-w-[calc(var(--thread-content-max-width)*2/3)]&quot; data-start=&quot;4047&quot; data-end=&quot;4057&quot; style=&quot;text-align: center;&quot;&gt;✔️&lt;/td&gt;&lt;td class=&quot;max-w-[calc(var(--thread-content-max-width)*2/3)]&quot; data-start=&quot;4057&quot; data-end=&quot;4069&quot; style=&quot;text-align: center;&quot;&gt;&lt;/td&gt;&lt;td class=&quot;max-w-[calc(var(--thread-content-max-width)*2/3)]&quot; data-start=&quot;4069&quot; data-end=&quot;4080&quot; style=&quot;text-align: center;&quot;&gt;&lt;/td&gt;&lt;td class=&quot;max-w-[calc(var(--thread-content-max-width)*2/3)]&quot; data-start=&quot;4080&quot; data-end=&quot;4090&quot; style=&quot;text-align: center;&quot;&gt;&lt;/td&gt;&lt;td class=&quot;max-w-[calc(var(--thread-content-max-width)*2/3)]&quot; data-start=&quot;4090&quot; data-end=&quot;4104&quot; style=&quot;text-align: center;&quot;&gt;&lt;/td&gt;&lt;/tr&gt;&lt;tr data-start=&quot;4105&quot; data-end=&quot;4228&quot;&gt;&lt;td class=&quot;max-w-[calc(var(--thread-content-max-width)*2/3)]&quot; data-start=&quot;4105&quot; data-end=&quot;4147&quot;&gt;Access billing/invoices&lt;/td&gt;&lt;td class=&quot;max-w-[calc(var(--thread-content-max-width)*2/3)]&quot; data-start=&quot;4147&quot; data-end=&quot;4159&quot; style=&quot;text-align: center;&quot;&gt;✔️&lt;/td&gt;&lt;td class=&quot;max-w-[calc(var(--thread-content-max-width)*2/3)]&quot; data-start=&quot;4159&quot; data-end=&quot;4172&quot; style=&quot;text-align: center;&quot;&gt;&lt;/td&gt;&lt;td class=&quot;max-w-[calc(var(--thread-content-max-width)*2/3)]&quot; data-start=&quot;4172&quot; data-end=&quot;4182&quot; style=&quot;text-align: center;&quot;&gt;&lt;/td&gt;&lt;td class=&quot;max-w-[calc(var(--thread-content-max-width)*2/3)]&quot; data-start=&quot;4182&quot; data-end=&quot;4194&quot; style=&quot;text-align: center;&quot;&gt;&lt;/td&gt;&lt;td class=&quot;max-w-[calc(var(--thread-content-max-width)*2/3)]&quot; data-start=&quot;4194&quot; data-end=&quot;4205&quot; style=&quot;text-align: center;&quot;&gt;&lt;/td&gt;&lt;td class=&quot;max-w-[calc(var(--thread-content-max-width)*2/3)]&quot; data-start=&quot;4205&quot; data-end=&quot;4214&quot; style=&quot;text-align: center;&quot;&gt;✔️&lt;/td&gt;&lt;td class=&quot;max-w-[calc(var(--thread-content-max-width)*2/3)]&quot; data-start=&quot;4214&quot; data-end=&quot;4228&quot; style=&quot;text-align: center;&quot;&gt;&lt;/td&gt;&lt;/tr&gt;&lt;tr data-start=&quot;4229&quot; data-end=&quot;4353&quot;&gt;&lt;td class=&quot;max-w-[calc(var(--thread-content-max-width)*2/3)]&quot; data-start=&quot;4229&quot; data-end=&quot;4271&quot;&gt;Reset passwords / access control&lt;/td&gt;&lt;td class=&quot;max-w-[calc(var(--thread-content-max-width)*2/3)]&quot; data-start=&quot;4271&quot; data-end=&quot;4283&quot; style=&quot;text-align: center;&quot;&gt;&lt;/td&gt;&lt;td class=&quot;max-w-[calc(var(--thread-content-max-width)*2/3)]&quot; data-start=&quot;4283&quot; data-end=&quot;4296&quot; style=&quot;text-align: center;&quot;&gt;&lt;/td&gt;&lt;td class=&quot;max-w-[calc(var(--thread-content-max-width)*2/3)]&quot; data-start=&quot;4296&quot; data-end=&quot;4306&quot; style=&quot;text-align: center;&quot;&gt;&lt;/td&gt;&lt;td class=&quot;max-w-[calc(var(--thread-content-max-width)*2/3)]&quot; data-start=&quot;4306&quot; data-end=&quot;4318&quot; style=&quot;text-align: center;&quot;&gt;&lt;/td&gt;&lt;td class=&quot;max-w-[calc(var(--thread-content-max-width)*2/3)]&quot; data-start=&quot;4318&quot; data-end=&quot;4329&quot; style=&quot;text-align: center;&quot;&gt;&lt;/td&gt;&lt;td class=&quot;max-w-[calc(var(--thread-content-max-width)*2/3)]&quot; data-start=&quot;4329&quot; data-end=&quot;4339&quot; style=&quot;text-align: center;&quot;&gt;&lt;/td&gt;&lt;td class=&quot;max-w-[calc(var(--thread-content-max-width)*2/3)]&quot; data-start=&quot;4339&quot; data-end=&quot;4353&quot; style=&quot;text-align: center;&quot;&gt;✔️&lt;/td&gt;&lt;/tr&gt;&lt;/tbody&gt;&lt;/table&gt;" style="text;whiteSpace=wrap;html=1;fillColor=#dae8fc;strokeColor=#6c8ebf;rounded=0;glass=0;sketch=1;curveFitting=1;jiggle=2;shadow=1;" parent="1" vertex="1">
                    <mxGeometry x="2000" y="400" width="640" height="240" as="geometry"/>
                </mxCell>
                <mxCell id="219" value="&lt;table class=&quot;min-w-full&quot; data-start=&quot;4381&quot; data-end=&quot;5655&quot;&gt;&lt;thead data-start=&quot;4381&quot; data-end=&quot;4522&quot;&gt;&lt;tr data-start=&quot;4381&quot; data-end=&quot;4522&quot;&gt;&lt;th data-start=&quot;4381&quot; data-end=&quot;4423&quot;&gt;&lt;strong data-start=&quot;4383&quot; data-end=&quot;4397&quot;&gt;Permission&lt;/strong&gt;&lt;/th&gt;&lt;th data-start=&quot;4423&quot; data-end=&quot;4437&quot; style=&quot;text-align: center;&quot;&gt;Super Admin&lt;/th&gt;&lt;th data-start=&quot;4437&quot; data-end=&quot;4459&quot; style=&quot;text-align: center;&quot;&gt;Implementation Lead&lt;/th&gt;&lt;th data-start=&quot;4459&quot; data-end=&quot;4478&quot; style=&quot;text-align: center;&quot;&gt;Customer Support&lt;/th&gt;&lt;th data-start=&quot;4478&quot; data-end=&quot;4496&quot; style=&quot;text-align: center;&quot;&gt;Product Manager&lt;/th&gt;&lt;th data-start=&quot;4496&quot; data-end=&quot;4508&quot; style=&quot;text-align: center;&quot;&gt;Sales Rep&lt;/th&gt;&lt;th data-start=&quot;4508&quot; data-end=&quot;4522&quot; style=&quot;text-align: center;&quot;&gt;Compliance&lt;/th&gt;&lt;/tr&gt;&lt;/thead&gt;&lt;tbody data-start=&quot;4665&quot; data-end=&quot;5655&quot;&gt;&lt;tr data-start=&quot;4665&quot; data-end=&quot;4806&quot;&gt;&lt;td class=&quot;max-w-[calc(var(--thread-content-max-width)*2/3)]&quot; data-start=&quot;4665&quot; data-end=&quot;4707&quot;&gt;Access all organizations&lt;/td&gt;&lt;td class=&quot;max-w-[calc(var(--thread-content-max-width)*2/3)]&quot; data-start=&quot;4707&quot; data-end=&quot;4721&quot; style=&quot;text-align: center;&quot;&gt;✔️&lt;/td&gt;&lt;td class=&quot;max-w-[calc(var(--thread-content-max-width)*2/3)]&quot; data-start=&quot;4721&quot; data-end=&quot;4743&quot; style=&quot;text-align: center;&quot;&gt;&lt;/td&gt;&lt;td class=&quot;max-w-[calc(var(--thread-content-max-width)*2/3)]&quot; data-start=&quot;4743&quot; data-end=&quot;4762&quot; style=&quot;text-align: center;&quot;&gt;✔️&lt;/td&gt;&lt;td class=&quot;max-w-[calc(var(--thread-content-max-width)*2/3)]&quot; data-start=&quot;4762&quot; data-end=&quot;4781&quot; style=&quot;text-align: center;&quot;&gt;&lt;/td&gt;&lt;td class=&quot;max-w-[calc(var(--thread-content-max-width)*2/3)]&quot; data-start=&quot;4781&quot; data-end=&quot;4792&quot; style=&quot;text-align: center;&quot;&gt;✔️&lt;/td&gt;&lt;td class=&quot;max-w-[calc(var(--thread-content-max-width)*2/3)]&quot; data-start=&quot;4792&quot; data-end=&quot;4806&quot; style=&quot;text-align: center;&quot;&gt;✔️&lt;/td&gt;&lt;/tr&gt;&lt;tr data-start=&quot;4807&quot; data-end=&quot;4947&quot;&gt;&lt;td class=&quot;max-w-[calc(var(--thread-content-max-width)*2/3)]&quot; data-start=&quot;4807&quot; data-end=&quot;4848&quot;&gt;Impersonate user (view only)&lt;/td&gt;&lt;td class=&quot;max-w-[calc(var(--thread-content-max-width)*2/3)]&quot; data-start=&quot;4848&quot; data-end=&quot;4862&quot; style=&quot;text-align: center;&quot;&gt;✔️&lt;/td&gt;&lt;td class=&quot;max-w-[calc(var(--thread-content-max-width)*2/3)]&quot; data-start=&quot;4862&quot; data-end=&quot;4884&quot; style=&quot;text-align: center;&quot;&gt;&lt;/td&gt;&lt;td class=&quot;max-w-[calc(var(--thread-content-max-width)*2/3)]&quot; data-start=&quot;4884&quot; data-end=&quot;4903&quot; style=&quot;text-align: center;&quot;&gt;✔️&lt;/td&gt;&lt;td class=&quot;max-w-[calc(var(--thread-content-max-width)*2/3)]&quot; data-start=&quot;4903&quot; data-end=&quot;4922&quot; style=&quot;text-align: center;&quot;&gt;&lt;/td&gt;&lt;td class=&quot;max-w-[calc(var(--thread-content-max-width)*2/3)]&quot; data-start=&quot;4922&quot; data-end=&quot;4933&quot; style=&quot;text-align: center;&quot;&gt;&lt;/td&gt;&lt;td class=&quot;max-w-[calc(var(--thread-content-max-width)*2/3)]&quot; data-start=&quot;4933&quot; data-end=&quot;4947&quot; style=&quot;text-align: center;&quot;&gt;&lt;/td&gt;&lt;/tr&gt;&lt;tr data-start=&quot;4948&quot; data-end=&quot;5088&quot;&gt;&lt;td class=&quot;max-w-[calc(var(--thread-content-max-width)*2/3)]&quot; data-start=&quot;4948&quot; data-end=&quot;4990&quot;&gt;Configure tenant modules&lt;/td&gt;&lt;td class=&quot;max-w-[calc(var(--thread-content-max-width)*2/3)]&quot; data-start=&quot;4990&quot; data-end=&quot;5004&quot; style=&quot;text-align: center;&quot;&gt;✔️&lt;/td&gt;&lt;td class=&quot;max-w-[calc(var(--thread-content-max-width)*2/3)]&quot; data-start=&quot;5004&quot; data-end=&quot;5025&quot; style=&quot;text-align: center;&quot;&gt;✔️&lt;/td&gt;&lt;td class=&quot;max-w-[calc(var(--thread-content-max-width)*2/3)]&quot; data-start=&quot;5025&quot; data-end=&quot;5044&quot; style=&quot;text-align: center;&quot;&gt;&lt;/td&gt;&lt;td class=&quot;max-w-[calc(var(--thread-content-max-width)*2/3)]&quot; data-start=&quot;5044&quot; data-end=&quot;5063&quot; style=&quot;text-align: center;&quot;&gt;&lt;/td&gt;&lt;td class=&quot;max-w-[calc(var(--thread-content-max-width)*2/3)]&quot; data-start=&quot;5063&quot; data-end=&quot;5074&quot; style=&quot;text-align: center;&quot;&gt;&lt;/td&gt;&lt;td class=&quot;max-w-[calc(var(--thread-content-max-width)*2/3)]&quot; data-start=&quot;5074&quot; data-end=&quot;5088&quot; style=&quot;text-align: center;&quot;&gt;&lt;/td&gt;&lt;/tr&gt;&lt;tr data-start=&quot;5089&quot; data-end=&quot;5230&quot;&gt;&lt;td class=&quot;max-w-[calc(var(--thread-content-max-width)*2/3)]&quot; data-start=&quot;5089&quot; data-end=&quot;5131&quot;&gt;View billing &amp;amp; subscription&lt;/td&gt;&lt;td class=&quot;max-w-[calc(var(--thread-content-max-width)*2/3)]&quot; data-start=&quot;5131&quot; data-end=&quot;5145&quot; style=&quot;text-align: center;&quot;&gt;✔️&lt;/td&gt;&lt;td class=&quot;max-w-[calc(var(--thread-content-max-width)*2/3)]&quot; data-start=&quot;5145&quot; data-end=&quot;5167&quot; style=&quot;text-align: center;&quot;&gt;&lt;/td&gt;&lt;td class=&quot;max-w-[calc(var(--thread-content-max-width)*2/3)]&quot; data-start=&quot;5167&quot; data-end=&quot;5186&quot; style=&quot;text-align: center;&quot;&gt;✔️&lt;/td&gt;&lt;td class=&quot;max-w-[calc(var(--thread-content-max-width)*2/3)]&quot; data-start=&quot;5186&quot; data-end=&quot;5205&quot; style=&quot;text-align: center;&quot;&gt;&lt;/td&gt;&lt;td class=&quot;max-w-[calc(var(--thread-content-max-width)*2/3)]&quot; data-start=&quot;5205&quot; data-end=&quot;5216&quot; style=&quot;text-align: center;&quot;&gt;✔️&lt;/td&gt;&lt;td class=&quot;max-w-[calc(var(--thread-content-max-width)*2/3)]&quot; data-start=&quot;5216&quot; data-end=&quot;5230&quot; style=&quot;text-align: center;&quot;&gt;&lt;/td&gt;&lt;/tr&gt;&lt;tr data-start=&quot;5231&quot; data-end=&quot;5372&quot;&gt;&lt;td class=&quot;max-w-[calc(var(--thread-content-max-width)*2/3)]&quot; data-start=&quot;5231&quot; data-end=&quot;5273&quot;&gt;Manage feature flags &amp;amp; rollouts&lt;/td&gt;&lt;td class=&quot;max-w-[calc(var(--thread-content-max-width)*2/3)]&quot; data-start=&quot;5273&quot; data-end=&quot;5287&quot; style=&quot;text-align: center;&quot;&gt;&lt;/td&gt;&lt;td class=&quot;max-w-[calc(var(--thread-content-max-width)*2/3)]&quot; data-start=&quot;5287&quot; data-end=&quot;5309&quot; style=&quot;text-align: center;&quot;&gt;&lt;/td&gt;&lt;td class=&quot;max-w-[calc(var(--thread-content-max-width)*2/3)]&quot; data-start=&quot;5309&quot; data-end=&quot;5328&quot; style=&quot;text-align: center;&quot;&gt;&lt;/td&gt;&lt;td class=&quot;max-w-[calc(var(--thread-content-max-width)*2/3)]&quot; data-start=&quot;5328&quot; data-end=&quot;5347&quot; style=&quot;text-align: center;&quot;&gt;✔️&lt;/td&gt;&lt;td class=&quot;max-w-[calc(var(--thread-content-max-width)*2/3)]&quot; data-start=&quot;5347&quot; data-end=&quot;5358&quot; style=&quot;text-align: center;&quot;&gt;&lt;/td&gt;&lt;td class=&quot;max-w-[calc(var(--thread-content-max-width)*2/3)]&quot; data-start=&quot;5358&quot; data-end=&quot;5372&quot; style=&quot;text-align: center;&quot;&gt;&lt;/td&gt;&lt;/tr&gt;&lt;tr data-start=&quot;5373&quot; data-end=&quot;5513&quot;&gt;&lt;td class=&quot;max-w-[calc(var(--thread-content-max-width)*2/3)]&quot; data-start=&quot;5373&quot; data-end=&quot;5415&quot;&gt;View analytics &amp;amp; usage reports&lt;/td&gt;&lt;td class=&quot;max-w-[calc(var(--thread-content-max-width)*2/3)]&quot; data-start=&quot;5415&quot; data-end=&quot;5429&quot; style=&quot;text-align: center;&quot;&gt;✔️&lt;/td&gt;&lt;td class=&quot;max-w-[calc(var(--thread-content-max-width)*2/3)]&quot; data-start=&quot;5429&quot; data-end=&quot;5450&quot; style=&quot;text-align: center;&quot;&gt;✔️&lt;/td&gt;&lt;td class=&quot;max-w-[calc(var(--thread-content-max-width)*2/3)]&quot; data-start=&quot;5450&quot; data-end=&quot;5469&quot; style=&quot;text-align: center;&quot;&gt;&lt;/td&gt;&lt;td class=&quot;max-w-[calc(var(--thread-content-max-width)*2/3)]&quot; data-start=&quot;5469&quot; data-end=&quot;5488&quot; style=&quot;text-align: center;&quot;&gt;✔️&lt;/td&gt;&lt;td class=&quot;max-w-[calc(var(--thread-content-max-width)*2/3)]&quot; data-start=&quot;5488&quot; data-end=&quot;5499&quot; style=&quot;text-align: center;&quot;&gt;✔️&lt;/td&gt;&lt;td class=&quot;max-w-[calc(var(--thread-content-max-width)*2/3)]&quot; data-start=&quot;5499&quot; data-end=&quot;5513&quot; style=&quot;text-align: center;&quot;&gt;✔️&lt;/td&gt;&lt;/tr&gt;&lt;tr data-start=&quot;5514&quot; data-end=&quot;5655&quot;&gt;&lt;td class=&quot;max-w-[calc(var(--thread-content-max-width)*2/3)]&quot; data-start=&quot;5514&quot; data-end=&quot;5556&quot;&gt;Monitor access logs &amp;amp; audit trails&lt;/td&gt;&lt;td class=&quot;max-w-[calc(var(--thread-content-max-width)*2/3)]&quot; data-start=&quot;5556&quot; data-end=&quot;5570&quot; style=&quot;text-align: center;&quot;&gt;✔️&lt;/td&gt;&lt;td class=&quot;max-w-[calc(var(--thread-content-max-width)*2/3)]&quot; data-start=&quot;5570&quot; data-end=&quot;5592&quot; style=&quot;text-align: center;&quot;&gt;&lt;/td&gt;&lt;td class=&quot;max-w-[calc(var(--thread-content-max-width)*2/3)]&quot; data-start=&quot;5592&quot; data-end=&quot;5611&quot; style=&quot;text-align: center;&quot;&gt;&lt;/td&gt;&lt;td class=&quot;max-w-[calc(var(--thread-content-max-width)*2/3)]&quot; data-start=&quot;5611&quot; data-end=&quot;5630&quot; style=&quot;text-align: center;&quot;&gt;&lt;/td&gt;&lt;td class=&quot;max-w-[calc(var(--thread-content-max-width)*2/3)]&quot; data-start=&quot;5630&quot; data-end=&quot;5641&quot; style=&quot;text-align: center;&quot;&gt;&lt;/td&gt;&lt;td class=&quot;max-w-[calc(var(--thread-content-max-width)*2/3)]&quot; data-start=&quot;5641&quot; data-end=&quot;5655&quot; style=&quot;text-align: center;&quot;&gt;✔️&lt;/td&gt;&lt;/tr&gt;&lt;/tbody&gt;&lt;/table&gt;" style="text;whiteSpace=wrap;html=1;fillColor=#ffe6cc;strokeColor=#d79b00;sketch=1;curveFitting=1;jiggle=2;shadow=1;" parent="1" vertex="1">
                    <mxGeometry x="2000" y="160" width="760" height="200" as="geometry"/>
                </mxCell>
                <mxCell id="224" value="&lt;h1 style=&quot;margin-top: 0px;&quot;&gt;&lt;u style=&quot;&quot;&gt;Rules&lt;/u&gt;&lt;/h1&gt;&lt;p&gt;&lt;strong data-end=&quot;5717&quot; data-start=&quot;5698&quot;&gt;Least Privilege&lt;/strong&gt;: Roles are granted only the permissions needed for their function.&lt;/p&gt;&lt;p&gt;&lt;strong data-end=&quot;5811&quot; data-start=&quot;5787&quot;&gt;Separation of Duties&lt;/strong&gt;: Financial, technical, and administrative roles are split to reduce risk.&lt;/p&gt;&lt;p&gt;&lt;strong data-end=&quot;5914&quot; data-start=&quot;5888&quot;&gt;Multi-Tenant Awareness&lt;/strong&gt;: Vendor roles can interact with multiple orgs but often with restrictions.&lt;/p&gt;&lt;p&gt;&lt;strong data-end=&quot;6016&quot; data-start=&quot;5992&quot;&gt;Audit and Monitoring&lt;/strong&gt;: Logs, impersonation with view-only, and compliance roles ensure oversight.&lt;/p&gt;" style="text;html=1;whiteSpace=wrap;overflow=hidden;rounded=0;" parent="1" vertex="1">
                    <mxGeometry x="560" y="40" width="640" height="170" as="geometry"/>
                </mxCell>
                <mxCell id="226" value="" style="group;" parent="1" vertex="1" connectable="0">
                    <mxGeometry x="40" y="490" width="1560" height="1430" as="geometry"/>
                </mxCell>
                <mxCell id="64" value="" style="edgeStyle=none;html=1;rounded=0;curved=0;dashed=1;startArrow=classic;startFill=1;" parent="226" source="51" target="112" edge="1">
                    <mxGeometry relative="1" as="geometry">
                        <mxPoint x="660" y="780" as="targetPoint"/>
                    </mxGeometry>
                </mxCell>
                <mxCell id="51" value="&lt;b&gt;HIRS CORE&lt;/b&gt;" style="swimlane;fontStyle=0;childLayout=stackLayout;horizontal=1;startSize=30;horizontalStack=0;resizeParent=1;resizeParentMax=0;resizeLast=0;collapsible=1;marginBottom=0;whiteSpace=wrap;html=1;fillColor=#d5e8d4;strokeColor=#82b366;shadow=1;rounded=0;" parent="226" vertex="1">
                    <mxGeometry x="580" y="620" width="160" height="120" as="geometry">
                        <mxRectangle x="580" y="200" width="110" height="30" as="alternateBounds"/>
                    </mxGeometry>
                </mxCell>
                <mxCell id="52" value="Configuratons" style="text;strokeColor=#82b366;fillColor=#d5e8d4;align=left;verticalAlign=middle;spacingLeft=4;spacingRight=4;overflow=hidden;points=[[0,0.5],[1,0.5]];portConstraint=eastwest;rotatable=0;whiteSpace=wrap;html=1;shadow=1;rounded=0;" parent="51" vertex="1">
                    <mxGeometry y="30" width="160" height="30" as="geometry"/>
                </mxCell>
                <mxCell id="53" value="Roles" style="text;strokeColor=#82b366;fillColor=#d5e8d4;align=left;verticalAlign=middle;spacingLeft=4;spacingRight=4;overflow=hidden;points=[[0,0.5],[1,0.5]];portConstraint=eastwest;rotatable=0;whiteSpace=wrap;html=1;shadow=1;rounded=0;" parent="51" vertex="1">
                    <mxGeometry y="60" width="160" height="30" as="geometry"/>
                </mxCell>
                <mxCell id="54" value="Permissions" style="text;strokeColor=#82b366;fillColor=#d5e8d4;align=left;verticalAlign=middle;spacingLeft=4;spacingRight=4;overflow=hidden;points=[[0,0.5],[1,0.5]];portConstraint=eastwest;rotatable=0;whiteSpace=wrap;html=1;shadow=1;rounded=0;" parent="51" vertex="1">
                    <mxGeometry y="90" width="160" height="30" as="geometry"/>
                </mxCell>
                <mxCell id="176" style="edgeStyle=elbowEdgeStyle;html=1;rounded=0;elbow=vertical;shadow=1;swimlaneLine=1;" parent="226" source="65" target="170" edge="1">
                    <mxGeometry relative="1" as="geometry"/>
                </mxCell>
                <mxCell id="179" style="edgeStyle=elbowEdgeStyle;html=1;rounded=0;elbow=vertical;shadow=1;swimlaneLine=1;" parent="226" source="65" target="162" edge="1">
                    <mxGeometry relative="1" as="geometry"/>
                </mxCell>
                <mxCell id="180" style="edgeStyle=elbowEdgeStyle;html=1;rounded=0;elbow=vertical;shadow=1;swimlaneLine=1;" parent="226" source="65" target="86" edge="1">
                    <mxGeometry relative="1" as="geometry"/>
                </mxCell>
                <mxCell id="183" style="edgeStyle=elbowEdgeStyle;html=1;rounded=0;elbow=vertical;shadow=1;swimlaneLine=1;" parent="226" source="65" target="75" edge="1">
                    <mxGeometry relative="1" as="geometry"/>
                </mxCell>
                <mxCell id="184" style="edgeStyle=elbowEdgeStyle;html=1;rounded=0;shadow=1;swimlaneLine=1;" parent="226" source="65" target="81" edge="1">
                    <mxGeometry relative="1" as="geometry"/>
                </mxCell>
                <mxCell id="185" style="edgeStyle=elbowEdgeStyle;html=1;rounded=0;elbow=vertical;shadow=1;swimlaneLine=1;" parent="226" source="65" target="154" edge="1">
                    <mxGeometry relative="1" as="geometry"/>
                </mxCell>
                <mxCell id="65" value="&lt;b&gt;ADMIN / CEO / PROPRIETORS&lt;/b&gt;" style="swimlane;fontStyle=0;childLayout=stackLayout;horizontal=1;startSize=30;horizontalStack=0;resizeParent=1;resizeParentMax=0;resizeLast=0;collapsible=1;marginBottom=0;whiteSpace=wrap;html=1;fillColor=#dae8fc;strokeColor=#6c8ebf;shadow=1;swimlaneLine=1;" parent="226" vertex="1">
                    <mxGeometry x="550" y="210" width="220" height="180" as="geometry">
                        <mxRectangle x="580" y="160" width="110" height="30" as="alternateBounds"/>
                    </mxGeometry>
                </mxCell>
                <mxCell id="66" value="- Manage organization profile&amp;nbsp;" style="text;strokeColor=#6c8ebf;fillColor=#dae8fc;align=left;verticalAlign=middle;spacingLeft=4;spacingRight=4;overflow=hidden;points=[[0,0.5],[1,0.5]];portConstraint=eastwest;rotatable=0;whiteSpace=wrap;html=1;shadow=1;swimlaneLine=1;" parent="65" vertex="1">
                    <mxGeometry y="30" width="220" height="30" as="geometry"/>
                </mxCell>
                <mxCell id="67" value="- Add/remove users&amp;nbsp;" style="text;strokeColor=#6c8ebf;fillColor=#dae8fc;align=left;verticalAlign=middle;spacingLeft=4;spacingRight=4;overflow=hidden;points=[[0,0.5],[1,0.5]];portConstraint=eastwest;rotatable=0;whiteSpace=wrap;html=1;shadow=1;swimlaneLine=1;" parent="65" vertex="1">
                    <mxGeometry y="60" width="220" height="30" as="geometry"/>
                </mxCell>
                <mxCell id="68" value="- Assign roles&amp;nbsp;" style="text;strokeColor=#6c8ebf;fillColor=#dae8fc;align=left;verticalAlign=middle;spacingLeft=4;spacingRight=4;overflow=hidden;points=[[0,0.5],[1,0.5]];portConstraint=eastwest;rotatable=0;whiteSpace=wrap;html=1;shadow=1;swimlaneLine=1;" parent="65" vertex="1">
                    <mxGeometry y="90" width="220" height="30" as="geometry"/>
                </mxCell>
                <mxCell id="231" style="edgeStyle=none;html=1;exitX=0;exitY=0.5;exitDx=0;exitDy=0;" parent="65" source="142" target="68" edge="1">
                    <mxGeometry relative="1" as="geometry"/>
                </mxCell>
                <mxCell id="142" value="- Configure modules &amp;amp; settings&amp;nbsp;" style="text;strokeColor=#6c8ebf;fillColor=#dae8fc;align=left;verticalAlign=middle;spacingLeft=4;spacingRight=4;overflow=hidden;points=[[0,0.5],[1,0.5]];portConstraint=eastwest;rotatable=0;whiteSpace=wrap;html=1;shadow=1;swimlaneLine=1;" parent="65" vertex="1">
                    <mxGeometry y="120" width="220" height="30" as="geometry"/>
                </mxCell>
                <mxCell id="144" value="- Access billing/invoices" style="text;strokeColor=#6c8ebf;fillColor=#dae8fc;align=left;verticalAlign=middle;spacingLeft=4;spacingRight=4;overflow=hidden;points=[[0,0.5],[1,0.5]];portConstraint=eastwest;rotatable=0;whiteSpace=wrap;html=1;shadow=1;swimlaneLine=1;" parent="65" vertex="1">
                    <mxGeometry y="150" width="220" height="30" as="geometry"/>
                </mxCell>
                <mxCell id="75" value="&lt;b&gt;Manager&lt;/b&gt;" style="swimlane;fontStyle=0;childLayout=stackLayout;horizontal=1;startSize=30;horizontalStack=0;resizeParent=1;resizeParentMax=0;resizeLast=0;collapsible=1;marginBottom=0;whiteSpace=wrap;html=1;fillColor=#dae8fc;strokeColor=#6c8ebf;shadow=1;swimlaneLine=1;" parent="226" vertex="1">
                    <mxGeometry x="830" width="200" height="150" as="geometry">
                        <mxRectangle x="580" y="160" width="110" height="30" as="alternateBounds"/>
                    </mxGeometry>
                </mxCell>
                <mxCell id="76" value="- Access team information&amp;nbsp;" style="text;strokeColor=#6c8ebf;fillColor=#dae8fc;align=left;verticalAlign=middle;spacingLeft=4;spacingRight=4;overflow=hidden;points=[[0,0.5],[1,0.5]];portConstraint=eastwest;rotatable=0;whiteSpace=wrap;html=1;shadow=1;swimlaneLine=1;" parent="75" vertex="1">
                    <mxGeometry y="30" width="200" height="30" as="geometry"/>
                </mxCell>
                <mxCell id="77" value="- Approve leaves&amp;nbsp;" style="text;strokeColor=#6c8ebf;fillColor=#dae8fc;align=left;verticalAlign=middle;spacingLeft=4;spacingRight=4;overflow=hidden;points=[[0,0.5],[1,0.5]];portConstraint=eastwest;rotatable=0;whiteSpace=wrap;html=1;shadow=1;swimlaneLine=1;" parent="75" vertex="1">
                    <mxGeometry y="60" width="200" height="30" as="geometry"/>
                </mxCell>
                <mxCell id="78" value="- Conduct evaluations&amp;nbsp;" style="text;strokeColor=#6c8ebf;fillColor=#dae8fc;align=left;verticalAlign=middle;spacingLeft=4;spacingRight=4;overflow=hidden;points=[[0,0.5],[1,0.5]];portConstraint=eastwest;rotatable=0;whiteSpace=wrap;html=1;shadow=1;swimlaneLine=1;" parent="75" vertex="1">
                    <mxGeometry y="90" width="200" height="30" as="geometry"/>
                </mxCell>
                <mxCell id="149" value="&lt;table&gt;&lt;tbody&gt;&lt;tr data-end=&quot;1210&quot; data-start=&quot;1078&quot;&gt;&lt;td data-end=&quot;1210&quot; data-start=&quot;1097&quot; class=&quot;max-w-[calc(var(--thread-content-max-width)*2/3)] min-w-[calc(var(--thread-content-max-width)/2)]&quot;&gt;- View performance dashboards&lt;/td&gt;&lt;/tr&gt;&lt;/tbody&gt;&lt;/table&gt;&lt;table&gt;&lt;tbody&gt;&lt;tr data-end=&quot;1347&quot; data-start=&quot;1211&quot;&gt;&lt;td data-end=&quot;1230&quot; data-start=&quot;1211&quot; class=&quot;max-w-[calc(var(--thread-content-max-width)*2/3)]&quot;&gt;&lt;/td&gt;&lt;/tr&gt;&lt;/tbody&gt;&lt;/table&gt;" style="text;strokeColor=#6c8ebf;fillColor=#dae8fc;align=left;verticalAlign=middle;spacingLeft=4;spacingRight=4;overflow=hidden;points=[[0,0.5],[1,0.5]];portConstraint=eastwest;rotatable=0;whiteSpace=wrap;html=1;shadow=1;swimlaneLine=1;" parent="75" vertex="1">
                    <mxGeometry y="120" width="200" height="30" as="geometry"/>
                </mxCell>
                <mxCell id="81" value="&lt;b&gt;HR MANAGER&lt;/b&gt;" style="swimlane;fontStyle=0;childLayout=stackLayout;horizontal=1;startSize=30;horizontalStack=0;resizeParent=1;resizeParentMax=0;resizeLast=0;collapsible=1;marginBottom=0;whiteSpace=wrap;html=1;fillColor=#dae8fc;strokeColor=#6c8ebf;shadow=1;swimlaneLine=1;" parent="226" vertex="1">
                    <mxGeometry x="560" width="200" height="150" as="geometry">
                        <mxRectangle x="580" y="160" width="110" height="30" as="alternateBounds"/>
                    </mxGeometry>
                </mxCell>
                <mxCell id="82" value="- Full access to employee data&amp;nbsp;" style="text;strokeColor=#6c8ebf;fillColor=#dae8fc;align=left;verticalAlign=middle;spacingLeft=4;spacingRight=4;overflow=hidden;points=[[0,0.5],[1,0.5]];portConstraint=eastwest;rotatable=0;whiteSpace=wrap;html=1;shadow=1;swimlaneLine=1;" parent="81" vertex="1">
                    <mxGeometry y="30" width="200" height="30" as="geometry"/>
                </mxCell>
                <mxCell id="83" value="- Manage recruitment&amp;nbsp;" style="text;strokeColor=#6c8ebf;fillColor=#dae8fc;align=left;verticalAlign=middle;spacingLeft=4;spacingRight=4;overflow=hidden;points=[[0,0.5],[1,0.5]];portConstraint=eastwest;rotatable=0;whiteSpace=wrap;html=1;shadow=1;swimlaneLine=1;" parent="81" vertex="1">
                    <mxGeometry y="60" width="200" height="30" as="geometry"/>
                </mxCell>
                <mxCell id="84" value="- Handle leave and attendance&amp;nbsp;" style="text;strokeColor=#6c8ebf;fillColor=#dae8fc;align=left;verticalAlign=middle;spacingLeft=4;spacingRight=4;overflow=hidden;points=[[0,0.5],[1,0.5]];portConstraint=eastwest;rotatable=0;whiteSpace=wrap;html=1;shadow=1;swimlaneLine=1;" parent="81" vertex="1">
                    <mxGeometry y="90" width="200" height="30" as="geometry"/>
                </mxCell>
                <mxCell id="145" value="&lt;table&gt;&lt;tbody&gt;&lt;tr data-end=&quot;1077&quot; data-start=&quot;943&quot;&gt;&lt;td data-end=&quot;1077&quot; data-start=&quot;962&quot; class=&quot;max-w-[calc(var(--thread-content-max-width)*2/3)] min-w-[calc(var(--thread-content-max-width)/2)]&quot;&gt;- View reports&lt;/td&gt;&lt;/tr&gt;&lt;/tbody&gt;&lt;/table&gt;&lt;table&gt;&lt;tbody&gt;&lt;tr data-end=&quot;1210&quot; data-start=&quot;1078&quot;&gt;&lt;td data-end=&quot;1097&quot; data-start=&quot;1078&quot; class=&quot;max-w-[calc(var(--thread-content-max-width)*2/3)]&quot;&gt;&lt;/td&gt;&lt;/tr&gt;&lt;/tbody&gt;&lt;/table&gt;" style="text;strokeColor=#6c8ebf;fillColor=#dae8fc;align=left;verticalAlign=middle;spacingLeft=4;spacingRight=4;overflow=hidden;points=[[0,0.5],[1,0.5]];portConstraint=eastwest;rotatable=0;whiteSpace=wrap;html=1;shadow=1;swimlaneLine=1;" parent="81" vertex="1">
                    <mxGeometry y="120" width="200" height="30" as="geometry"/>
                </mxCell>
                <mxCell id="86" value="&lt;b&gt;RECRUITER&lt;/b&gt;" style="swimlane;fontStyle=0;childLayout=stackLayout;horizontal=1;startSize=30;horizontalStack=0;resizeParent=1;resizeParentMax=0;resizeLast=0;collapsible=1;marginBottom=0;whiteSpace=wrap;html=1;fillColor=#dae8fc;strokeColor=#6c8ebf;shadow=1;swimlaneLine=1;" parent="226" vertex="1">
                    <mxGeometry x="280" width="200" height="150" as="geometry">
                        <mxRectangle x="580" y="160" width="110" height="30" as="alternateBounds"/>
                    </mxGeometry>
                </mxCell>
                <mxCell id="87" value="- Manage job postings&amp;nbsp;" style="text;strokeColor=#6c8ebf;fillColor=#dae8fc;align=left;verticalAlign=middle;spacingLeft=4;spacingRight=4;overflow=hidden;points=[[0,0.5],[1,0.5]];portConstraint=eastwest;rotatable=0;whiteSpace=wrap;html=1;shadow=1;swimlaneLine=1;" parent="86" vertex="1">
                    <mxGeometry y="30" width="200" height="30" as="geometry"/>
                </mxCell>
                <mxCell id="88" value="- Screen applicants&amp;nbsp;" style="text;strokeColor=#6c8ebf;fillColor=#dae8fc;align=left;verticalAlign=middle;spacingLeft=4;spacingRight=4;overflow=hidden;points=[[0,0.5],[1,0.5]];portConstraint=eastwest;rotatable=0;whiteSpace=wrap;html=1;shadow=1;swimlaneLine=1;" parent="86" vertex="1">
                    <mxGeometry y="60" width="200" height="30" as="geometry"/>
                </mxCell>
                <mxCell id="89" value="- Schedule interviews&amp;nbsp;" style="text;strokeColor=#6c8ebf;fillColor=#dae8fc;align=left;verticalAlign=middle;spacingLeft=4;spacingRight=4;overflow=hidden;points=[[0,0.5],[1,0.5]];portConstraint=eastwest;rotatable=0;whiteSpace=wrap;html=1;shadow=1;swimlaneLine=1;" parent="86" vertex="1">
                    <mxGeometry y="90" width="200" height="30" as="geometry"/>
                </mxCell>
                <mxCell id="152" value="&lt;table&gt;&lt;tbody&gt;&lt;tr data-end=&quot;1347&quot; data-start=&quot;1211&quot;&gt;&lt;td data-end=&quot;1347&quot; data-start=&quot;1230&quot; class=&quot;max-w-[calc(var(--thread-content-max-width)*2/3)] min-w-[calc(var(--thread-content-max-width)/2)]&quot;&gt;- Collaborate with hiring managers&lt;/td&gt;&lt;/tr&gt;&lt;/tbody&gt;&lt;/table&gt;&lt;table&gt;&lt;tbody&gt;&lt;tr data-end=&quot;1468&quot; data-start=&quot;1348&quot;&gt;&lt;td data-end=&quot;1367&quot; data-start=&quot;1348&quot; class=&quot;max-w-[calc(var(--thread-content-max-width)*2/3)]&quot;&gt;&lt;/td&gt;&lt;/tr&gt;&lt;/tbody&gt;&lt;/table&gt;" style="text;strokeColor=#6c8ebf;fillColor=#dae8fc;align=left;verticalAlign=middle;spacingLeft=4;spacingRight=4;overflow=hidden;points=[[0,0.5],[1,0.5]];portConstraint=eastwest;rotatable=0;whiteSpace=wrap;html=1;shadow=1;swimlaneLine=1;" parent="86" vertex="1">
                    <mxGeometry y="120" width="200" height="30" as="geometry"/>
                </mxCell>
                <mxCell id="105" style="edgeStyle=none;html=1;endArrow=classic;endFill=1;startArrow=classic;startFill=1;dashed=1;" parent="226" source="103" target="51" edge="1">
                    <mxGeometry relative="1" as="geometry"/>
                </mxCell>
                <mxCell id="106" style="edgeStyle=elbowEdgeStyle;html=1;rounded=0;elbow=vertical;" parent="226" source="103" edge="1">
                    <mxGeometry relative="1" as="geometry">
                        <mxPoint x="660" y="500" as="targetPoint"/>
                    </mxGeometry>
                </mxCell>
                <mxCell id="121" style="edgeStyle=none;html=1;startArrow=classic;startFill=1;endArrow=none;endFill=0;" parent="226" source="115" target="113" edge="1">
                    <mxGeometry relative="1" as="geometry"/>
                </mxCell>
                <mxCell id="127" value="" style="edgeStyle=elbowEdgeStyle;html=1;rounded=0;elbow=vertical;fillColor=#ffe6cc;strokeColor=#d79b00;shadow=1;" parent="226" source="115" target="123" edge="1">
                    <mxGeometry relative="1" as="geometry"/>
                </mxCell>
                <mxCell id="132" value="" style="edgeStyle=elbowEdgeStyle;html=1;elbow=vertical;rounded=0;curved=0;fillColor=#ffe6cc;strokeColor=#d79b00;shadow=1;" parent="226" source="115" target="128" edge="1">
                    <mxGeometry relative="1" as="geometry"/>
                </mxCell>
                <mxCell id="200" style="edgeStyle=elbowEdgeStyle;html=1;rounded=0;elbow=vertical;fillColor=#ffe6cc;strokeColor=#d79b00;shadow=1;" parent="226" source="115" target="194" edge="1">
                    <mxGeometry relative="1" as="geometry"/>
                </mxCell>
                <mxCell id="207" value="" style="edgeStyle=none;html=1;fillColor=#ffe6cc;strokeColor=#d79b00;shadow=1;" parent="226" source="115" target="201" edge="1">
                    <mxGeometry relative="1" as="geometry"/>
                </mxCell>
                <mxCell id="217" value="" style="edgeStyle=elbowEdgeStyle;html=1;rounded=0;elbow=vertical;fillColor=#ffe6cc;strokeColor=#d79b00;shadow=1;" parent="226" source="115" target="211" edge="1">
                    <mxGeometry relative="1" as="geometry"/>
                </mxCell>
                <mxCell id="115" value="&lt;b&gt;SUPER ADMIN&lt;/b&gt;" style="swimlane;fontStyle=0;childLayout=stackLayout;horizontal=1;startSize=30;horizontalStack=0;resizeParent=1;resizeParentMax=0;resizeLast=0;collapsible=1;marginBottom=0;whiteSpace=wrap;html=1;fillColor=#ffe6cc;strokeColor=#d79b00;shadow=1;" parent="226" vertex="1">
                    <mxGeometry x="580" y="950" width="160" height="180" as="geometry">
                        <mxRectangle x="580" y="1020" width="110" height="30" as="alternateBounds"/>
                    </mxGeometry>
                </mxCell>
                <mxCell id="116" value="- Full system access&amp;nbsp;" style="text;strokeColor=#d79b00;fillColor=#ffe6cc;align=left;verticalAlign=middle;spacingLeft=4;spacingRight=4;overflow=hidden;points=[[0,0.5],[1,0.5]];portConstraint=eastwest;rotatable=0;whiteSpace=wrap;html=1;shadow=1;" parent="115" vertex="1">
                    <mxGeometry y="30" width="160" height="30" as="geometry"/>
                </mxCell>
                <mxCell id="117" value="- Manage all tenants/orgs&amp;nbsp;" style="text;strokeColor=#d79b00;fillColor=#ffe6cc;align=left;verticalAlign=middle;spacingLeft=4;spacingRight=4;overflow=hidden;points=[[0,0.5],[1,0.5]];portConstraint=eastwest;rotatable=0;whiteSpace=wrap;html=1;shadow=1;" parent="115" vertex="1">
                    <mxGeometry y="60" width="160" height="30" as="geometry"/>
                </mxCell>
                <mxCell id="118" value="- Override permissions&amp;nbsp;" style="text;strokeColor=#d79b00;fillColor=#ffe6cc;align=left;verticalAlign=middle;spacingLeft=4;spacingRight=4;overflow=hidden;points=[[0,0.5],[1,0.5]];portConstraint=eastwest;rotatable=0;whiteSpace=wrap;html=1;shadow=1;" parent="115" vertex="1">
                    <mxGeometry y="90" width="160" height="30" as="geometry"/>
                </mxCell>
                <mxCell id="191" value="- Access logs&amp;nbsp;" style="text;strokeColor=#d79b00;fillColor=#ffe6cc;align=left;verticalAlign=middle;spacingLeft=4;spacingRight=4;overflow=hidden;points=[[0,0.5],[1,0.5]];portConstraint=eastwest;rotatable=0;whiteSpace=wrap;html=1;shadow=1;" parent="115" vertex="1">
                    <mxGeometry y="120" width="160" height="30" as="geometry"/>
                </mxCell>
                <mxCell id="192" value="&lt;table&gt;&lt;tbody&gt;&lt;tr data-end=&quot;2210&quot; data-start=&quot;2056&quot;&gt;&lt;td data-end=&quot;2210&quot; data-start=&quot;2081&quot; class=&quot;max-w-[calc(var(--thread-content-max-width)*2/3)] min-w-[calc(var(--thread-content-max-width)/2)]&quot;&gt;- Manage integrations&lt;/td&gt;&lt;/tr&gt;&lt;/tbody&gt;&lt;/table&gt;&lt;table&gt;&lt;tbody&gt;&lt;tr data-end=&quot;2341&quot; data-start=&quot;2211&quot;&gt;&lt;td data-end=&quot;2236&quot; data-start=&quot;2211&quot; class=&quot;max-w-[calc(var(--thread-content-max-width)*2/3)]&quot;&gt;&lt;/td&gt;&lt;/tr&gt;&lt;/tbody&gt;&lt;/table&gt;" style="text;strokeColor=#d79b00;fillColor=#ffe6cc;align=left;verticalAlign=middle;spacingLeft=4;spacingRight=4;overflow=hidden;points=[[0,0.5],[1,0.5]];portConstraint=eastwest;rotatable=0;whiteSpace=wrap;html=1;shadow=1;" parent="115" vertex="1">
                    <mxGeometry y="150" width="160" height="30" as="geometry"/>
                </mxCell>
                <mxCell id="123" value="&lt;b&gt;IMPLEMENTATION LEAD&lt;/b&gt;" style="swimlane;fontStyle=0;childLayout=stackLayout;horizontal=1;startSize=30;horizontalStack=0;resizeParent=1;resizeParentMax=0;resizeLast=0;collapsible=1;marginBottom=0;whiteSpace=wrap;html=1;fillColor=#ffe6cc;strokeColor=#d79b00;shadow=1;" parent="226" vertex="1">
                    <mxGeometry y="1210" width="240" height="120" as="geometry">
                        <mxRectangle x="580" y="160" width="110" height="30" as="alternateBounds"/>
                    </mxGeometry>
                </mxCell>
                <mxCell id="124" value="- Assist client onboarding&amp;nbsp;" style="text;strokeColor=#d79b00;fillColor=#ffe6cc;align=left;verticalAlign=middle;spacingLeft=4;spacingRight=4;overflow=hidden;points=[[0,0.5],[1,0.5]];portConstraint=eastwest;rotatable=0;whiteSpace=wrap;html=1;shadow=1;" parent="123" vertex="1">
                    <mxGeometry y="30" width="240" height="30" as="geometry"/>
                </mxCell>
                <mxCell id="125" value="- Configure tenant-specific modules&amp;nbsp;" style="text;strokeColor=#d79b00;fillColor=#ffe6cc;align=left;verticalAlign=middle;spacingLeft=4;spacingRight=4;overflow=hidden;points=[[0,0.5],[1,0.5]];portConstraint=eastwest;rotatable=0;whiteSpace=wrap;html=1;shadow=1;" parent="123" vertex="1">
                    <mxGeometry y="60" width="240" height="30" as="geometry"/>
                </mxCell>
                <mxCell id="126" value="&lt;table&gt;&lt;tbody&gt;&lt;tr data-end=&quot;2341&quot; data-start=&quot;2211&quot;&gt;&lt;td data-end=&quot;2341&quot; data-start=&quot;2236&quot; class=&quot;max-w-[calc(var(--thread-content-max-width)*2/3)] min-w-[calc(var(--thread-content-max-width)/2)]&quot;&gt;- Set up workflows&lt;/td&gt;&lt;/tr&gt;&lt;/tbody&gt;&lt;/table&gt;&lt;table&gt;&lt;tbody&gt;&lt;tr data-end=&quot;2481&quot; data-start=&quot;2342&quot;&gt;&lt;td data-end=&quot;2367&quot; data-start=&quot;2342&quot; class=&quot;max-w-[calc(var(--thread-content-max-width)*2/3)]&quot;&gt;&lt;/td&gt;&lt;/tr&gt;&lt;/tbody&gt;&lt;/table&gt;" style="text;strokeColor=#d79b00;fillColor=#ffe6cc;align=left;verticalAlign=middle;spacingLeft=4;spacingRight=4;overflow=hidden;points=[[0,0.5],[1,0.5]];portConstraint=eastwest;rotatable=0;whiteSpace=wrap;html=1;shadow=1;" parent="123" vertex="1">
                    <mxGeometry y="90" width="240" height="30" as="geometry"/>
                </mxCell>
                <mxCell id="128" value="&lt;b&gt;AUDIT/COMPLIANCE&lt;/b&gt;" style="swimlane;fontStyle=0;childLayout=stackLayout;horizontal=1;startSize=30;horizontalStack=0;resizeParent=1;resizeParentMax=0;resizeLast=0;collapsible=1;marginBottom=0;whiteSpace=wrap;html=1;fillColor=#ffe6cc;strokeColor=#d79b00;shadow=1;" parent="226" vertex="1">
                    <mxGeometry x="1000" y="1210" width="200" height="120" as="geometry">
                        <mxRectangle x="580" y="160" width="110" height="30" as="alternateBounds"/>
                    </mxGeometry>
                </mxCell>
                <mxCell id="129" value="- Read-only access to logs&amp;nbsp;" style="text;strokeColor=#d79b00;fillColor=#ffe6cc;align=left;verticalAlign=middle;spacingLeft=4;spacingRight=4;overflow=hidden;points=[[0,0.5],[1,0.5]];portConstraint=eastwest;rotatable=0;whiteSpace=wrap;html=1;shadow=1;" parent="128" vertex="1">
                    <mxGeometry y="30" width="200" height="30" as="geometry"/>
                </mxCell>
                <mxCell id="130" value="- Monitor data access and usage&amp;nbsp;" style="text;strokeColor=#d79b00;fillColor=#ffe6cc;align=left;verticalAlign=middle;spacingLeft=4;spacingRight=4;overflow=hidden;points=[[0,0.5],[1,0.5]];portConstraint=eastwest;rotatable=0;whiteSpace=wrap;html=1;shadow=1;" parent="128" vertex="1">
                    <mxGeometry y="60" width="200" height="30" as="geometry"/>
                </mxCell>
                <mxCell id="131" value="&lt;div class=&quot;group pointer-events-none relative flex justify-center *:pointer-events-auto&quot;&gt;&lt;div class=&quot;tableContainer horzScrollShadows relative&quot;&gt;&lt;table data-end=&quot;2895&quot; data-start=&quot;1795&quot; class=&quot;min-w-full&quot;&gt;&lt;tbody data-end=&quot;2895&quot; data-start=&quot;2056&quot;&gt;&lt;tr data-end=&quot;2895&quot; data-start=&quot;2765&quot;&gt;&lt;td data-end=&quot;2895&quot; data-start=&quot;2790&quot; class=&quot;max-w-[calc(var(--thread-content-max-width)*2/3)] min-w-[calc(var(--thread-content-max-width)/2)]&quot;&gt;- Generate compliance reports&lt;/td&gt;&lt;/tr&gt;&lt;/tbody&gt;&lt;/table&gt;&lt;/div&gt;&lt;/div&gt;" style="text;strokeColor=#d79b00;fillColor=#ffe6cc;align=left;verticalAlign=middle;spacingLeft=4;spacingRight=4;overflow=hidden;points=[[0,0.5],[1,0.5]];portConstraint=eastwest;rotatable=0;whiteSpace=wrap;html=1;shadow=1;" parent="128" vertex="1">
                    <mxGeometry y="90" width="200" height="30" as="geometry"/>
                </mxCell>
                <mxCell id="140" value="" style="group;" parent="226" vertex="1" connectable="0">
                    <mxGeometry x="595" y="810" width="130" height="91" as="geometry"/>
                </mxCell>
                <mxCell id="112" value="" style="verticalLabelPosition=bottom;aspect=fixed;html=1;shape=mxgraph.salesforce.industries;" parent="140" vertex="1">
                    <mxGeometry x="38.299999999999955" width="53.4" height="60" as="geometry"/>
                </mxCell>
                <mxCell id="113" value="&lt;b&gt;VENDOR / OWNER&lt;/b&gt;" style="text;html=1;align=center;verticalAlign=middle;resizable=0;points=[];autosize=1;strokeColor=none;fillColor=none;" parent="140" vertex="1">
                    <mxGeometry y="61" width="130" height="30" as="geometry"/>
                </mxCell>
                <mxCell id="141" value="" style="group;" parent="226" vertex="1" connectable="0">
                    <mxGeometry x="610" y="460" width="100" height="90" as="geometry"/>
                </mxCell>
                <mxCell id="103" value="" style="verticalLabelPosition=bottom;aspect=fixed;html=1;shape=mxgraph.salesforce.industries;" parent="141" vertex="1">
                    <mxGeometry x="23.299999999999955" y="30" width="53.4" height="60" as="geometry"/>
                </mxCell>
                <mxCell id="109" value="&lt;b&gt;ORG / CLIENT&lt;/b&gt;" style="text;html=1;align=center;verticalAlign=middle;resizable=0;points=[];autosize=1;strokeColor=none;fillColor=none;" parent="141" vertex="1">
                    <mxGeometry width="100" height="30" as="geometry"/>
                </mxCell>
                <mxCell id="154" value="&lt;b&gt;CUSTOM ROLE&lt;/b&gt;" style="swimlane;fontStyle=0;childLayout=stackLayout;horizontal=1;startSize=30;horizontalStack=0;resizeParent=1;resizeParentMax=0;resizeLast=0;collapsible=1;marginBottom=0;whiteSpace=wrap;html=1;fillColor=#dae8fc;strokeColor=#6c8ebf;shadow=1;swimlaneLine=1;" parent="226" vertex="1">
                    <mxGeometry x="1090" y="90" width="220" height="60" as="geometry">
                        <mxRectangle x="580" y="160" width="110" height="30" as="alternateBounds"/>
                    </mxGeometry>
                </mxCell>
                <mxCell id="162" value="&lt;b&gt;FINANCE&lt;/b&gt;" style="swimlane;fontStyle=0;childLayout=stackLayout;horizontal=1;startSize=30;horizontalStack=0;resizeParent=1;resizeParentMax=0;resizeLast=0;collapsible=1;marginBottom=0;whiteSpace=wrap;html=1;fillColor=#dae8fc;strokeColor=#6c8ebf;shadow=1;swimlaneLine=1;" parent="226" vertex="1">
                    <mxGeometry x="1340" width="220" height="150" as="geometry">
                        <mxRectangle x="580" y="160" width="110" height="30" as="alternateBounds"/>
                    </mxGeometry>
                </mxCell>
                <mxCell id="163" value="- View payroll&amp;nbsp;" style="text;strokeColor=#6c8ebf;fillColor=#dae8fc;align=left;verticalAlign=middle;spacingLeft=4;spacingRight=4;overflow=hidden;points=[[0,0.5],[1,0.5]];portConstraint=eastwest;rotatable=0;whiteSpace=wrap;html=1;shadow=1;swimlaneLine=1;" parent="162" vertex="1">
                    <mxGeometry y="30" width="220" height="30" as="geometry"/>
                </mxCell>
                <mxCell id="164" value="- Export reports&amp;nbsp;" style="text;strokeColor=#6c8ebf;fillColor=#dae8fc;align=left;verticalAlign=middle;spacingLeft=4;spacingRight=4;overflow=hidden;points=[[0,0.5],[1,0.5]];portConstraint=eastwest;rotatable=0;whiteSpace=wrap;html=1;shadow=1;swimlaneLine=1;" parent="162" vertex="1">
                    <mxGeometry y="60" width="220" height="30" as="geometry"/>
                </mxCell>
                <mxCell id="165" value="- Handle reimbursements&amp;nbsp;" style="text;strokeColor=#6c8ebf;fillColor=#dae8fc;align=left;verticalAlign=middle;spacingLeft=4;spacingRight=4;overflow=hidden;points=[[0,0.5],[1,0.5]];portConstraint=eastwest;rotatable=0;whiteSpace=wrap;html=1;shadow=1;swimlaneLine=1;" parent="162" vertex="1">
                    <mxGeometry y="90" width="220" height="30" as="geometry"/>
                </mxCell>
                <mxCell id="166" value="&lt;table&gt;&lt;tbody&gt;&lt;tr data-end=&quot;1587&quot; data-start=&quot;1469&quot;&gt;&lt;td data-end=&quot;1587&quot; data-start=&quot;1488&quot; class=&quot;max-w-[calc(var(--thread-content-max-width)*2/3)] min-w-[calc(var(--thread-content-max-width)/2)]&quot;&gt;- View salary structures&lt;/td&gt;&lt;/tr&gt;&lt;/tbody&gt;&lt;/table&gt;&lt;table&gt;&lt;tbody&gt;&lt;tr data-end=&quot;1725&quot; data-start=&quot;1588&quot;&gt;&lt;td data-end=&quot;1607&quot; data-start=&quot;1588&quot; class=&quot;max-w-[calc(var(--thread-content-max-width)*2/3)]&quot;&gt;&lt;/td&gt;&lt;/tr&gt;&lt;/tbody&gt;&lt;/table&gt;" style="text;strokeColor=#6c8ebf;fillColor=#dae8fc;align=left;verticalAlign=middle;spacingLeft=4;spacingRight=4;overflow=hidden;points=[[0,0.5],[1,0.5]];portConstraint=eastwest;rotatable=0;whiteSpace=wrap;html=1;shadow=1;swimlaneLine=1;" parent="162" vertex="1">
                    <mxGeometry y="120" width="220" height="30" as="geometry"/>
                </mxCell>
                <mxCell id="170" value="&lt;b&gt;IT/SUPPORT&lt;/b&gt;" style="swimlane;fontStyle=0;childLayout=stackLayout;horizontal=1;startSize=30;horizontalStack=0;resizeParent=1;resizeParentMax=0;resizeLast=0;collapsible=1;marginBottom=0;whiteSpace=wrap;html=1;fillColor=#dae8fc;strokeColor=#6c8ebf;shadow=1;swimlaneLine=1;" parent="226" vertex="1">
                    <mxGeometry width="200" height="150" as="geometry">
                        <mxRectangle x="580" y="160" width="110" height="30" as="alternateBounds"/>
                    </mxGeometry>
                </mxCell>
                <mxCell id="171" value="- Manage internal users’ access&amp;nbsp;" style="text;strokeColor=#6c8ebf;fillColor=#dae8fc;align=left;verticalAlign=middle;spacingLeft=4;spacingRight=4;overflow=hidden;points=[[0,0.5],[1,0.5]];portConstraint=eastwest;rotatable=0;whiteSpace=wrap;html=1;shadow=1;swimlaneLine=1;" parent="170" vertex="1">
                    <mxGeometry y="30" width="200" height="30" as="geometry"/>
                </mxCell>
                <mxCell id="172" value="- Reset passwords&amp;nbsp;" style="text;strokeColor=#6c8ebf;fillColor=#dae8fc;align=left;verticalAlign=middle;spacingLeft=4;spacingRight=4;overflow=hidden;points=[[0,0.5],[1,0.5]];portConstraint=eastwest;rotatable=0;whiteSpace=wrap;html=1;shadow=1;swimlaneLine=1;" parent="170" vertex="1">
                    <mxGeometry y="60" width="200" height="30" as="geometry"/>
                </mxCell>
                <mxCell id="173" value="- View activity logs&amp;nbsp;" style="text;strokeColor=#6c8ebf;fillColor=#dae8fc;align=left;verticalAlign=middle;spacingLeft=4;spacingRight=4;overflow=hidden;points=[[0,0.5],[1,0.5]];portConstraint=eastwest;rotatable=0;whiteSpace=wrap;html=1;shadow=1;swimlaneLine=1;" parent="170" vertex="1">
                    <mxGeometry y="90" width="200" height="30" as="geometry"/>
                </mxCell>
                <mxCell id="174" value="&lt;table&gt;&lt;tbody&gt;&lt;tr data-end=&quot;1347&quot; data-start=&quot;1211&quot;&gt;&lt;td data-end=&quot;1347&quot; data-start=&quot;1230&quot; class=&quot;max-w-[calc(var(--thread-content-max-width)*2/3)] min-w-[calc(var(--thread-content-max-width)/2)]&quot;&gt;&lt;div class=&quot;group pointer-events-none relative flex justify-center *:pointer-events-auto&quot;&gt;&lt;div class=&quot;tableContainer horzScrollShadows relative&quot;&gt;&lt;table data-end=&quot;1725&quot; data-start=&quot;538&quot; class=&quot;min-w-full&quot;&gt;&lt;tbody data-end=&quot;1725&quot; data-start=&quot;779&quot;&gt;&lt;tr data-end=&quot;1725&quot; data-start=&quot;1588&quot;&gt;&lt;td data-end=&quot;1725&quot; data-start=&quot;1607&quot; class=&quot;max-w-[calc(var(--thread-content-max-width)*2/3)] min-w-[calc(var(--thread-content-max-width)/2)]&quot;&gt;- Support SSO/configurations&lt;/td&gt;&lt;/tr&gt;&lt;/tbody&gt;&lt;/table&gt;&lt;/div&gt;&lt;/div&gt;&lt;table&gt;&lt;tbody&gt;&lt;tr data-end=&quot;1468&quot; data-start=&quot;1348&quot;&gt;&lt;/tr&gt;&lt;/tbody&gt;&lt;/table&gt;&lt;/td&gt;&lt;/tr&gt;&lt;/tbody&gt;&lt;/table&gt;" style="text;strokeColor=#6c8ebf;fillColor=#dae8fc;align=left;verticalAlign=middle;spacingLeft=4;spacingRight=4;overflow=hidden;points=[[0,0.5],[1,0.5]];portConstraint=eastwest;rotatable=0;whiteSpace=wrap;html=1;shadow=1;swimlaneLine=1;" parent="170" vertex="1">
                    <mxGeometry y="120" width="200" height="30" as="geometry"/>
                </mxCell>
                <mxCell id="194" value="&lt;b&gt;CUSTOMER SUPPORT&lt;/b&gt;" style="swimlane;fontStyle=0;childLayout=stackLayout;horizontal=1;startSize=30;horizontalStack=0;resizeParent=1;resizeParentMax=0;resizeLast=0;collapsible=1;marginBottom=0;whiteSpace=wrap;html=1;fillColor=#ffe6cc;strokeColor=#d79b00;shadow=1;" parent="226" vertex="1">
                    <mxGeometry x="280" y="1210" width="240" height="150" as="geometry">
                        <mxRectangle x="580" y="160" width="110" height="30" as="alternateBounds"/>
                    </mxGeometry>
                </mxCell>
                <mxCell id="195" value="- View org-level issues&amp;nbsp;" style="text;strokeColor=#d79b00;fillColor=#ffe6cc;align=left;verticalAlign=middle;spacingLeft=4;spacingRight=4;overflow=hidden;points=[[0,0.5],[1,0.5]];portConstraint=eastwest;rotatable=0;whiteSpace=wrap;html=1;shadow=1;" parent="194" vertex="1">
                    <mxGeometry y="30" width="240" height="30" as="geometry"/>
                </mxCell>
                <mxCell id="196" value="- Log tickets&amp;nbsp;" style="text;strokeColor=#d79b00;fillColor=#ffe6cc;align=left;verticalAlign=middle;spacingLeft=4;spacingRight=4;overflow=hidden;points=[[0,0.5],[1,0.5]];portConstraint=eastwest;rotatable=0;whiteSpace=wrap;html=1;shadow=1;" parent="194" vertex="1">
                    <mxGeometry y="60" width="240" height="30" as="geometry"/>
                </mxCell>
                <mxCell id="197" value="- Access limited org data&amp;nbsp;" style="text;strokeColor=#d79b00;fillColor=#ffe6cc;align=left;verticalAlign=middle;spacingLeft=4;spacingRight=4;overflow=hidden;points=[[0,0.5],[1,0.5]];portConstraint=eastwest;rotatable=0;whiteSpace=wrap;html=1;shadow=1;" parent="194" vertex="1">
                    <mxGeometry y="90" width="240" height="30" as="geometry"/>
                </mxCell>
                <mxCell id="199" value="&lt;table&gt;&lt;tbody&gt;&lt;tr data-end=&quot;2481&quot; data-start=&quot;2342&quot;&gt;&lt;td data-end=&quot;2481&quot; data-start=&quot;2367&quot; class=&quot;max-w-[calc(var(--thread-content-max-width)*2/3)] min-w-[calc(var(--thread-content-max-width)/2)]&quot;&gt;- Impersonate users (view only)&lt;/td&gt;&lt;/tr&gt;&lt;/tbody&gt;&lt;/table&gt;&lt;table&gt;&lt;tbody&gt;&lt;tr data-end=&quot;2624&quot; data-start=&quot;2482&quot;&gt;&lt;td data-end=&quot;2507&quot; data-start=&quot;2482&quot; class=&quot;max-w-[calc(var(--thread-content-max-width)*2/3)]&quot;&gt;&lt;/td&gt;&lt;/tr&gt;&lt;/tbody&gt;&lt;/table&gt;" style="text;strokeColor=#d79b00;fillColor=#ffe6cc;align=left;verticalAlign=middle;spacingLeft=4;spacingRight=4;overflow=hidden;points=[[0,0.5],[1,0.5]];portConstraint=eastwest;rotatable=0;whiteSpace=wrap;html=1;shadow=1;" parent="194" vertex="1">
                    <mxGeometry y="120" width="240" height="30" as="geometry"/>
                </mxCell>
                <mxCell id="201" value="&lt;b&gt;PRODUCT MANAGER&lt;/b&gt;" style="swimlane;fontStyle=0;childLayout=stackLayout;horizontal=1;startSize=30;horizontalStack=0;resizeParent=1;resizeParentMax=0;resizeLast=0;collapsible=1;marginBottom=0;whiteSpace=wrap;html=1;fillColor=#ffe6cc;strokeColor=#d79b00;shadow=1;" parent="226" vertex="1">
                    <mxGeometry x="560" y="1210" width="200" height="150" as="geometry">
                        <mxRectangle x="580" y="160" width="110" height="30" as="alternateBounds"/>
                    </mxGeometry>
                </mxCell>
                <mxCell id="202" value="- Manage features and modules&amp;nbsp;" style="text;strokeColor=#d79b00;fillColor=#ffe6cc;align=left;verticalAlign=middle;spacingLeft=4;spacingRight=4;overflow=hidden;points=[[0,0.5],[1,0.5]];portConstraint=eastwest;rotatable=0;whiteSpace=wrap;html=1;shadow=1;" parent="201" vertex="1">
                    <mxGeometry y="30" width="200" height="30" as="geometry"/>
                </mxCell>
                <mxCell id="203" value="- Control feature flags&amp;nbsp;" style="text;strokeColor=#d79b00;fillColor=#ffe6cc;align=left;verticalAlign=middle;spacingLeft=4;spacingRight=4;overflow=hidden;points=[[0,0.5],[1,0.5]];portConstraint=eastwest;rotatable=0;whiteSpace=wrap;html=1;shadow=1;" parent="201" vertex="1">
                    <mxGeometry y="60" width="200" height="30" as="geometry"/>
                </mxCell>
                <mxCell id="204" value="- Review usage analytics&amp;nbsp;" style="text;strokeColor=#d79b00;fillColor=#ffe6cc;align=left;verticalAlign=middle;spacingLeft=4;spacingRight=4;overflow=hidden;points=[[0,0.5],[1,0.5]];portConstraint=eastwest;rotatable=0;whiteSpace=wrap;html=1;shadow=1;" parent="201" vertex="1">
                    <mxGeometry y="90" width="200" height="30" as="geometry"/>
                </mxCell>
                <mxCell id="205" value="&lt;table&gt;&lt;tbody&gt;&lt;tr data-end=&quot;2624&quot; data-start=&quot;2482&quot;&gt;&lt;td data-end=&quot;2624&quot; data-start=&quot;2507&quot; class=&quot;max-w-[calc(var(--thread-content-max-width)*2/3)] min-w-[calc(var(--thread-content-max-width)/2)]&quot;&gt;- Schedule rollouts&lt;/td&gt;&lt;/tr&gt;&lt;/tbody&gt;&lt;/table&gt;&lt;table&gt;&lt;tbody&gt;&lt;tr data-end=&quot;2764&quot; data-start=&quot;2625&quot;&gt;&lt;td data-end=&quot;2650&quot; data-start=&quot;2625&quot; class=&quot;max-w-[calc(var(--thread-content-max-width)*2/3)]&quot;&gt;&lt;/td&gt;&lt;/tr&gt;&lt;/tbody&gt;&lt;/table&gt;" style="text;strokeColor=#d79b00;fillColor=#ffe6cc;align=left;verticalAlign=middle;spacingLeft=4;spacingRight=4;overflow=hidden;points=[[0,0.5],[1,0.5]];portConstraint=eastwest;rotatable=0;whiteSpace=wrap;html=1;shadow=1;" parent="201" vertex="1">
                    <mxGeometry y="120" width="200" height="30" as="geometry"/>
                </mxCell>
                <mxCell id="211" value="&lt;b&gt;SALES/ACCOUNT REP&lt;/b&gt;" style="swimlane;fontStyle=0;childLayout=stackLayout;horizontal=1;startSize=30;horizontalStack=0;resizeParent=1;resizeParentMax=0;resizeLast=0;collapsible=1;marginBottom=0;whiteSpace=wrap;html=1;fillColor=#ffe6cc;strokeColor=#d79b00;shadow=1;" parent="226" vertex="1">
                    <mxGeometry x="800" y="1210" width="160" height="150" as="geometry">
                        <mxRectangle x="580" y="160" width="110" height="30" as="alternateBounds"/>
                    </mxGeometry>
                </mxCell>
                <mxCell id="212" value="- View organization usage&amp;nbsp;" style="text;strokeColor=#d79b00;fillColor=#ffe6cc;align=left;verticalAlign=middle;spacingLeft=4;spacingRight=4;overflow=hidden;points=[[0,0.5],[1,0.5]];portConstraint=eastwest;rotatable=0;whiteSpace=wrap;html=1;shadow=1;" parent="211" vertex="1">
                    <mxGeometry y="30" width="160" height="30" as="geometry"/>
                </mxCell>
                <mxCell id="213" value="- View billing status&amp;nbsp;" style="text;strokeColor=#d79b00;fillColor=#ffe6cc;align=left;verticalAlign=middle;spacingLeft=4;spacingRight=4;overflow=hidden;points=[[0,0.5],[1,0.5]];portConstraint=eastwest;rotatable=0;whiteSpace=wrap;html=1;shadow=1;" parent="211" vertex="1">
                    <mxGeometry y="60" width="160" height="30" as="geometry"/>
                </mxCell>
                <mxCell id="214" value="- Initiate renewal workflows&amp;nbsp;" style="text;strokeColor=#d79b00;fillColor=#ffe6cc;align=left;verticalAlign=middle;spacingLeft=4;spacingRight=4;overflow=hidden;points=[[0,0.5],[1,0.5]];portConstraint=eastwest;rotatable=0;whiteSpace=wrap;html=1;shadow=1;" parent="211" vertex="1">
                    <mxGeometry y="90" width="160" height="30" as="geometry"/>
                </mxCell>
                <mxCell id="215" value="&lt;table&gt;&lt;tbody&gt;&lt;tr data-end=&quot;2764&quot; data-start=&quot;2625&quot;&gt;&lt;td data-end=&quot;2764&quot; data-start=&quot;2650&quot; class=&quot;max-w-[calc(var(--thread-content-max-width)*2/3)] min-w-[calc(var(--thread-content-max-width)/2)]&quot;&gt;- Request upgrades&lt;/td&gt;&lt;/tr&gt;&lt;/tbody&gt;&lt;/table&gt;&lt;table&gt;&lt;tbody&gt;&lt;tr data-end=&quot;2895&quot; data-start=&quot;2765&quot;&gt;&lt;td data-end=&quot;2790&quot; data-start=&quot;2765&quot; class=&quot;max-w-[calc(var(--thread-content-max-width)*2/3)]&quot;&gt;&lt;/td&gt;&lt;/tr&gt;&lt;/tbody&gt;&lt;/table&gt;" style="text;strokeColor=#d79b00;fillColor=#ffe6cc;align=left;verticalAlign=middle;spacingLeft=4;spacingRight=4;overflow=hidden;points=[[0,0.5],[1,0.5]];portConstraint=eastwest;rotatable=0;whiteSpace=wrap;html=1;shadow=1;" parent="211" vertex="1">
                    <mxGeometry y="120" width="160" height="30" as="geometry"/>
                </mxCell>
                <mxCell id="240" value="ORGS ONBOARDING PROCESS" style="whiteSpace=wrap;html=1;fontStyle=0;startSize=30;shadow=1;dashed=1;" vertex="1" parent="226">
                    <mxGeometry x="800" y="270" width="120" height="60" as="geometry"/>
                </mxCell>
                <mxCell id="241" value="" style="edgeStyle=none;html=1;dashed=1;" edge="1" parent="226" source="65" target="240">
                    <mxGeometry relative="1" as="geometry"/>
                </mxCell>
                <mxCell id="247" style="edgeStyle=none;html=1;entryX=0.5;entryY=1;entryDx=0;entryDy=0;dashed=1;" edge="1" parent="226" source="109" target="65">
                    <mxGeometry relative="1" as="geometry"/>
                </mxCell>
                <mxCell id="230" value="" style="group;fillColor=#d5e8d4;strokeColor=#82b366;rounded=0;sketch=1;curveFitting=1;jiggle=2;shadow=1;" parent="1" vertex="1" connectable="0">
                    <mxGeometry x="2000" y="680" width="320" height="280" as="geometry"/>
                </mxCell>
                <mxCell id="227" value="&lt;ul&gt;&lt;li&gt;&lt;b&gt;ONBOARDING&lt;/b&gt;&lt;/li&gt;&lt;li&gt;&lt;b&gt;CLOCKING / TIME TRACKING&lt;/b&gt;&lt;/li&gt;&lt;li&gt;&lt;b&gt;PAYROLL&lt;/b&gt;&lt;/li&gt;&lt;li&gt;&lt;b&gt;NOTIFICATION *&lt;/b&gt;&lt;/li&gt;&lt;li&gt;&lt;b&gt;EMPLOYEE LOANS&lt;/b&gt;&lt;/li&gt;&lt;li&gt;&lt;b&gt;EXIT / OFF BOARDING&lt;/b&gt;&lt;/li&gt;&lt;li&gt;&lt;b&gt;RECRUITMENT&lt;/b&gt;&lt;/li&gt;&lt;li&gt;&lt;b&gt;WORKSPACE / PROFILE COSTUMIZATION&lt;/b&gt;&lt;/li&gt;&lt;li&gt;&lt;b&gt;LMS (Learning Managment System)&lt;/b&gt;&lt;/li&gt;&lt;li&gt;&lt;b&gt;LEAVE MANAGEMENT&lt;/b&gt;&lt;/li&gt;&lt;li&gt;&lt;b&gt;FILES/DIRECTORIES&lt;/b&gt;&lt;/li&gt;&lt;li&gt;&lt;b&gt;PAYSLIP&lt;/b&gt;&lt;/li&gt;&lt;/ul&gt;" style="text;strokeColor=none;fillColor=none;html=1;whiteSpace=wrap;verticalAlign=middle;overflow=hidden;" parent="230" vertex="1">
                    <mxGeometry y="40" width="320" height="240" as="geometry"/>
                </mxCell>
                <mxCell id="228" value="&lt;div style=&quot;&quot;&gt;&lt;span style=&quot;background-color: transparent;&quot;&gt;FEATURES/MODULES&lt;/span&gt;&lt;/div&gt;" style="text;strokeColor=none;fillColor=none;html=1;fontSize=24;fontStyle=1;verticalAlign=middle;align=center;" parent="230" vertex="1">
                    <mxGeometry y="10" width="320" height="40" as="geometry"/>
                </mxCell>
                <mxCell id="232" value="X- PERMISSIONS" style="text;html=1;align=center;verticalAlign=middle;resizable=0;points=[];autosize=1;strokeColor=none;fillColor=none;" vertex="1" parent="1">
                    <mxGeometry x="1180" y="610" width="120" height="30" as="geometry"/>
                </mxCell>
                <mxCell id="243" style="edgeStyle=none;html=1;entryX=0.5;entryY=0;entryDx=0;entryDy=0;dashed=1;rounded=0;curved=0;startArrow=classic;startFill=1;endArrow=none;endFill=0;" edge="1" parent="1" source="239" target="75">
                    <mxGeometry relative="1" as="geometry"/>
                </mxCell>
                <mxCell id="244" style="edgeStyle=none;html=1;entryX=0.5;entryY=0;entryDx=0;entryDy=0;dashed=1;rounded=0;curved=0;startArrow=classic;startFill=1;endArrow=none;endFill=0;" edge="1" parent="1" source="239" target="81">
                    <mxGeometry relative="1" as="geometry"/>
                </mxCell>
                <mxCell id="245" style="edgeStyle=none;html=1;exitX=0.25;exitY=1;exitDx=0;exitDy=0;dashed=1;rounded=0;curved=0;startArrow=classic;startFill=1;endArrow=none;endFill=0;" edge="1" parent="1" source="239">
                    <mxGeometry relative="1" as="geometry">
                        <mxPoint x="400" y="490" as="targetPoint"/>
                    </mxGeometry>
                </mxCell>
                <mxCell id="246" style="edgeStyle=none;html=1;exitX=0;exitY=0.5;exitDx=0;exitDy=0;entryX=0.5;entryY=0;entryDx=0;entryDy=0;dashed=1;rounded=0;curved=0;startArrow=classic;startFill=1;endArrow=none;endFill=0;" edge="1" parent="1" source="239" target="170">
                    <mxGeometry relative="1" as="geometry"/>
                </mxCell>
                <mxCell id="239" value="EMPLOYEE ONBOARDING PROCESS" style="whiteSpace=wrap;html=1;dashed=1;" vertex="1" parent="1">
                    <mxGeometry x="575" y="280" width="250" height="60" as="geometry"/>
                </mxCell>
                <mxCell id="242" style="edgeStyle=none;html=1;entryX=0.628;entryY=0.007;entryDx=0;entryDy=0;entryPerimeter=0;dashed=1;rounded=0;curved=0;startArrow=classic;startFill=1;endArrow=none;endFill=0;" edge="1" parent="1" source="239" target="162">
                    <mxGeometry relative="1" as="geometry"/>
                </mxCell>
            </root>
        </mxGraphModel>
    </diagram>
    <diagram id="kQWTR5pERCVxZXvq9Vtk" name="Folder Structure">
        <mxGraphModel dx="1425" dy="774" grid="1" gridSize="10" guides="1" tooltips="1" connect="1" arrows="1" fold="1" page="1" pageScale="1" pageWidth="1440" pageHeight="200" math="0" shadow="0">
            <root>
                <mxCell id="0"/>
                <mxCell id="1" parent="0"/>
                <UserObject label="src/&#xa;│&#xa;├── app/&#xa;│   ├── (auth)/                 # Auth routes (login, register, reset)&#xa;│   ├── (public)/               # Public pages (landing, help, TOS, etc.)&#xa;│   ├── (org)/                  # Routes specific to organization clients&#xa;│   │   └── dashboard/          # Example: org dashboard route&#xa;│   ├── (vendor)/               # Routes specific to vendor/internal team&#xa;│   │   └── admin/              # Example: vendor admin panel&#xa;│   ├── layout.tsx             # Shared layout&#xa;│   ├── not-found.tsx&#xa;│   └── page.tsx&#xa;│&#xa;├── modules/                   # Business logic and features (modularized)&#xa;│   ├── @org/                  # Org-specific features&#xa;│   │   ├── user/              # e.g., employee CRUD, org roles&#xa;│   │   ├── payroll/&#xa;│   │   ├── recruitment/&#xa;│   │   └── ...&#xa;│   └── @vendor/               # Vendor-specific features&#xa;│       ├── tenant-management/&#xa;│       ├── audit/&#xa;│       ├── internal-users/&#xa;│       └── ...&#xa;│&#xa;├── components/                # Shared or scoped UI components&#xa;│   ├── ui/                    # Base UI components (buttons, modals, etc.)&#xa;│   ├── org/                   # Org-specific UI components&#xa;│   └── vendor/                # Vendor-specific UI components&#xa;│&#xa;├── context/                   # React context providers&#xa;├── hooks/                     # Custom hooks&#xa;├── lib/                       # External libraries, fetchers, utils&#xa;│&#xa;├── schemas/                   # Zod schemas for validation&#xa;│   ├── org/&#xa;│   └── vendor/&#xa;│&#xa;├── test/                      # Test utilities or mocks&#xa;├── types/                     # Global TypeScript types&#xa;├── utils/                     # General helper functions&#xa;│&#xa;├── theme.css                  # Global styles (or Tailwind config if using)&#xa;├── middleware.ts             # Middleware for RBAC, auth, etc.&#xa;└── ..." link="src/&#xa;│&#xa;├── app/&#xa;│   ├── (auth)/                 # Auth routes (login, register, reset)&#xa;│   ├── (public)/               # Public pages (landing, help, TOS, etc.)&#xa;│   ├── (org)/                  # Routes specific to organization clients&#xa;│   │   └── dashboard/          # Example: org dashboard route&#xa;│   ├── (vendor)/               # Routes specific to vendor/internal team&#xa;│   │   └── admin/              # Example: vendor admin panel&#xa;│   ├── layout.tsx             # Shared layout&#xa;│   ├── not-found.tsx&#xa;│   └── page.tsx&#xa;│&#xa;├── modules/                   # Business logic and features (modularized)&#xa;│   ├── @org/                  # Org-specific features&#xa;│   │   ├── user/              # e.g., employee CRUD, org roles&#xa;│   │   ├── payroll/&#xa;│   │   ├── recruitment/&#xa;│   │   └── ...&#xa;│   └── @vendor/               # Vendor-specific features&#xa;│       ├── tenant-management/&#xa;│       ├── audit/&#xa;│       ├── internal-users/&#xa;│       └── ...&#xa;│&#xa;├── components/                # Shared or scoped UI components&#xa;│   ├── ui/                    # Base UI components (buttons, modals, etc.)&#xa;│   ├── org/                   # Org-specific UI components&#xa;│   └── vendor/                # Vendor-specific UI components&#xa;│&#xa;├── context/                   # React context providers&#xa;├── hooks/                     # Custom hooks&#xa;├── lib/                       # External libraries, fetchers, utils&#xa;│&#xa;├── schemas/                   # Zod schemas for validation&#xa;│   ├── org/&#xa;│   └── vendor/&#xa;│&#xa;├── test/                      # Test utilities or mocks&#xa;├── types/                     # Global TypeScript types&#xa;├── utils/                     # General helper functions&#xa;│&#xa;├── theme.css                  # Global styles (or Tailwind config if using)&#xa;├── middleware.ts             # Middleware for RBAC, auth, etc.&#xa;└── ..." id="i7t27i3l00d0t1RDC6lP-1">
                    <mxCell style="text;whiteSpace=wrap;" vertex="1" parent="1">
                        <mxGeometry y="200" width="410" height="670" as="geometry"/>
                    </mxCell>
                </UserObject>
            </root>
        </mxGraphModel>
    </diagram>
</mxfile>